<mxfile host="65bd71144e">
    <diagram id="B2GL-u6kaDc9tVTc9WBU" name="Page-1">
        <mxGraphModel dx="1675" dy="486" grid="1" gridSize="10" guides="1" tooltips="1" connect="1" arrows="1" fold="1" page="1" pageScale="1" pageWidth="850" pageHeight="1100" math="0" shadow="0">
            <root>
                <mxCell id="0"/>
                <mxCell id="1" parent="0"/>
                <mxCell id="18" style="edgeStyle=none;rounded=0;html=1;exitX=1;exitY=0.5;exitDx=0;exitDy=0;entryX=0;entryY=0.5;entryDx=0;entryDy=0;dashed=1;dashPattern=1 4;strokeWidth=1;endArrow=none;endFill=0;" edge="1" parent="1" source="2" target="3">
                    <mxGeometry relative="1" as="geometry">
                        <Array as="points">
                            <mxPoint x="100" y="20"/>
                            <mxPoint x="100" y="60"/>
                            <mxPoint x="-20" y="60"/>
                            <mxPoint x="-20" y="100"/>
                        </Array>
                    </mxGeometry>
                </mxCell>
                <mxCell id="2" value="raygen" style="rounded=0;whiteSpace=wrap;html=1;shadow=1;fontFamily=Lucida Console;fillColor=#fff2cc;strokeColor=#d6b656;" vertex="1" parent="1">
                    <mxGeometry width="80" height="40" as="geometry"/>
                </mxCell>
                <mxCell id="16" style="edgeStyle=none;rounded=0;html=1;exitX=1;exitY=0.5;exitDx=0;exitDy=0;entryX=0;entryY=0.5;entryDx=0;entryDy=0;dashed=1;dashPattern=1 4;strokeWidth=1;endArrow=none;endFill=0;" edge="1" parent="1" source="3" target="6">
                    <mxGeometry relative="1" as="geometry"/>
                </mxCell>
                <mxCell id="3" value="miss&lt;br&gt;[0]" style="rounded=0;whiteSpace=wrap;html=1;shadow=1;fontFamily=Lucida Console;fillColor=#f8cecc;strokeColor=#b85450;" vertex="1" parent="1">
                    <mxGeometry y="80" width="80" height="40" as="geometry"/>
                </mxCell>
                <mxCell id="4" value="callable&lt;br&gt;[C-1]" style="rounded=0;whiteSpace=wrap;html=1;shadow=1;fontFamily=Lucida Console;fillColor=#dae8fc;strokeColor=#6c8ebf;" vertex="1" parent="1">
                    <mxGeometry x="140" y="240" width="80" height="40" as="geometry"/>
                </mxCell>
                <mxCell id="25" style="edgeStyle=none;rounded=0;html=1;exitX=1;exitY=0.5;exitDx=0;exitDy=0;entryX=0;entryY=0.5;entryDx=0;entryDy=0;dashed=1;dashPattern=1 4;strokeWidth=1;endArrow=none;endFill=0;startArrow=none;" edge="1" parent="1" source="32" target="4">
                    <mxGeometry relative="1" as="geometry"/>
                </mxCell>
                <mxCell id="5" value="callable&lt;br&gt;[0]" style="rounded=0;whiteSpace=wrap;html=1;shadow=1;fontFamily=Lucida Console;fillColor=#dae8fc;strokeColor=#6c8ebf;" vertex="1" parent="1">
                    <mxGeometry y="240" width="80" height="40" as="geometry"/>
                </mxCell>
                <mxCell id="6" value="miss&lt;br&gt;[M-1]" style="rounded=0;whiteSpace=wrap;html=1;shadow=1;fontFamily=Lucida Console;fillColor=#f8cecc;strokeColor=#b85450;" vertex="1" parent="1">
                    <mxGeometry x="140" y="80" width="80" height="40" as="geometry"/>
                </mxCell>
                <mxCell id="17" style="edgeStyle=none;rounded=0;html=1;exitX=1;exitY=0.5;exitDx=0;exitDy=0;entryX=0;entryY=0.5;entryDx=0;entryDy=0;dashed=1;dashPattern=1 4;strokeWidth=1;endArrow=none;endFill=0;" edge="1" parent="1" source="7" target="8">
                    <mxGeometry relative="1" as="geometry"/>
                </mxCell>
                <mxCell id="7" value="closest&lt;br&gt;[0]" style="rounded=0;whiteSpace=wrap;html=1;shadow=1;fontFamily=Lucida Console;fillColor=#d5e8d4;strokeColor=#82b366;" vertex="1" parent="1">
                    <mxGeometry y="160" width="80" height="40" as="geometry"/>
                </mxCell>
                <mxCell id="20" style="edgeStyle=none;rounded=0;html=1;exitX=1;exitY=0.5;exitDx=0;exitDy=0;entryX=0;entryY=0.5;entryDx=0;entryDy=0;dashed=1;dashPattern=1 4;strokeWidth=1;endArrow=none;endFill=0;" edge="1" parent="1" source="8" target="9">
                    <mxGeometry relative="1" as="geometry"/>
                </mxCell>
                <mxCell id="8" value="closest&lt;br&gt;[C-1]" style="rounded=0;whiteSpace=wrap;html=1;shadow=1;fontFamily=Lucida Console;fillColor=#d5e8d4;strokeColor=#82b366;" vertex="1" parent="1">
                    <mxGeometry x="140" y="160" width="80" height="40" as="geometry"/>
                </mxCell>
                <mxCell id="21" style="edgeStyle=none;rounded=0;html=1;exitX=1;exitY=0.5;exitDx=0;exitDy=0;entryX=0;entryY=0.5;entryDx=0;entryDy=0;dashed=1;dashPattern=1 4;strokeWidth=1;endArrow=none;endFill=0;startArrow=none;" edge="1" parent="1" source="28" target="10">
                    <mxGeometry relative="1" as="geometry"/>
                </mxCell>
                <mxCell id="9" value="any&lt;br&gt;[0]" style="rounded=0;whiteSpace=wrap;html=1;shadow=1;fontFamily=Lucida Console;fillColor=#93DE7C;strokeColor=#3B9C00;fontColor=#000000;" vertex="1" parent="1">
                    <mxGeometry x="240" y="160" width="80" height="40" as="geometry"/>
                </mxCell>
                <mxCell id="22" style="edgeStyle=none;rounded=0;html=1;exitX=1;exitY=0.5;exitDx=0;exitDy=0;entryX=0;entryY=0.5;entryDx=0;entryDy=0;dashed=1;dashPattern=1 4;strokeWidth=1;endArrow=none;endFill=0;" edge="1" parent="1" source="10" target="11">
                    <mxGeometry relative="1" as="geometry"/>
                </mxCell>
                <mxCell id="10" value="any&lt;br&gt;[A-1]" style="rounded=0;whiteSpace=wrap;html=1;shadow=1;fontFamily=Lucida Console;fillColor=#93DE7C;strokeColor=#3B9C00;fontColor=#000000;" vertex="1" parent="1">
                    <mxGeometry x="380" y="160" width="80" height="40" as="geometry"/>
                </mxCell>
                <mxCell id="23" style="edgeStyle=none;rounded=0;html=1;exitX=1;exitY=0.5;exitDx=0;exitDy=0;entryX=0;entryY=0.5;entryDx=0;entryDy=0;dashed=1;dashPattern=1 4;strokeWidth=1;endArrow=none;endFill=0;startArrow=none;" edge="1" parent="1" source="27" target="12">
                    <mxGeometry relative="1" as="geometry"/>
                </mxCell>
                <mxCell id="11" value="intersect&lt;br&gt;[0]" style="rounded=0;whiteSpace=wrap;html=1;shadow=1;fontFamily=Lucida Console;fillColor=#5BBF50;strokeColor=#2D7600;fontColor=#000000;" vertex="1" parent="1">
                    <mxGeometry x="480" y="160" width="80" height="40" as="geometry"/>
                </mxCell>
                <mxCell id="24" style="edgeStyle=none;rounded=0;html=1;exitX=1;exitY=0.5;exitDx=0;exitDy=0;entryX=0;entryY=0.5;entryDx=0;entryDy=0;dashed=1;dashPattern=1 4;strokeWidth=1;endArrow=none;endFill=0;" edge="1" parent="1" source="12" target="5">
                    <mxGeometry relative="1" as="geometry">
                        <Array as="points">
                            <mxPoint x="720" y="180"/>
                            <mxPoint x="720" y="220"/>
                            <mxPoint x="-20" y="220"/>
                            <mxPoint x="-20" y="260"/>
                        </Array>
                    </mxGeometry>
                </mxCell>
                <mxCell id="12" value="intersect&lt;br&gt;[I-1]" style="rounded=0;whiteSpace=wrap;html=1;shadow=1;fontFamily=Lucida Console;fillColor=#5BBF50;strokeColor=#2D7600;fontColor=#000000;" vertex="1" parent="1">
                    <mxGeometry x="620" y="160" width="80" height="40" as="geometry"/>
                </mxCell>
                <mxCell id="19" style="edgeStyle=none;rounded=0;html=1;entryX=0;entryY=0.5;entryDx=0;entryDy=0;dashed=1;dashPattern=1 4;strokeWidth=1;endArrow=none;endFill=0;exitX=1;exitY=0.5;exitDx=0;exitDy=0;" edge="1" parent="1" source="6" target="7">
                    <mxGeometry relative="1" as="geometry">
                        <mxPoint x="210" y="110" as="sourcePoint"/>
                        <mxPoint x="120" y="180" as="targetPoint"/>
                        <Array as="points">
                            <mxPoint x="240" y="100"/>
                            <mxPoint x="240" y="140"/>
                            <mxPoint x="-20" y="140"/>
                            <mxPoint x="-20" y="180"/>
                        </Array>
                    </mxGeometry>
                </mxCell>
                <mxCell id="26" value="" style="rounded=0;whiteSpace=wrap;html=1;shadow=1;fontFamily=Lucida Console;fillColor=#f8cecc;strokeColor=#b85450;dashed=1;" vertex="1" parent="1">
                    <mxGeometry x="100" y="80" width="20" height="40" as="geometry"/>
                </mxCell>
                <mxCell id="29" value="" style="edgeStyle=none;rounded=0;html=1;exitX=1;exitY=0.5;exitDx=0;exitDy=0;entryX=0;entryY=0.5;entryDx=0;entryDy=0;dashed=1;dashPattern=1 4;strokeWidth=1;endArrow=none;endFill=0;" edge="1" parent="1" source="9" target="28">
                    <mxGeometry relative="1" as="geometry">
                        <mxPoint x="360" y="180" as="sourcePoint"/>
                        <mxPoint x="425" y="180" as="targetPoint"/>
                    </mxGeometry>
                </mxCell>
                <mxCell id="28" value="" style="rounded=0;whiteSpace=wrap;html=1;shadow=1;fontFamily=Lucida Console;fillColor=#93DE7C;strokeColor=#3B9C00;fontColor=#000000;dashed=1;" vertex="1" parent="1">
                    <mxGeometry x="340" y="160" width="20" height="40" as="geometry"/>
                </mxCell>
                <mxCell id="30" value="" style="rounded=0;whiteSpace=wrap;html=1;shadow=1;fontFamily=Lucida Console;fillColor=#d5e8d4;strokeColor=#82b366;dashed=1;" vertex="1" parent="1">
                    <mxGeometry x="100" y="160" width="20" height="40" as="geometry"/>
                </mxCell>
                <mxCell id="31" value="" style="edgeStyle=none;rounded=0;html=1;exitX=1;exitY=0.5;exitDx=0;exitDy=0;entryX=0;entryY=0.5;entryDx=0;entryDy=0;dashed=1;dashPattern=1 4;strokeWidth=1;endArrow=none;endFill=0;" edge="1" parent="1" source="11" target="27">
                    <mxGeometry relative="1" as="geometry">
                        <mxPoint x="560" y="180" as="sourcePoint"/>
                        <mxPoint x="660" y="180" as="targetPoint"/>
                    </mxGeometry>
                </mxCell>
                <mxCell id="27" value="" style="rounded=0;whiteSpace=wrap;html=1;shadow=1;fontFamily=Lucida Console;fillColor=#5BBF50;strokeColor=#2D7600;fontColor=#000000;dashed=1;" vertex="1" parent="1">
                    <mxGeometry x="580" y="160" width="20" height="40" as="geometry"/>
                </mxCell>
                <mxCell id="33" value="" style="edgeStyle=none;rounded=0;html=1;exitX=1;exitY=0.5;exitDx=0;exitDy=0;entryX=0;entryY=0.5;entryDx=0;entryDy=0;dashed=1;dashPattern=1 4;strokeWidth=1;endArrow=none;endFill=0;" edge="1" parent="1" source="5" target="32">
                    <mxGeometry relative="1" as="geometry">
                        <mxPoint x="80" y="260" as="sourcePoint"/>
                        <mxPoint x="140" y="260" as="targetPoint"/>
                    </mxGeometry>
                </mxCell>
                <mxCell id="32" value="" style="rounded=0;whiteSpace=wrap;html=1;shadow=1;fontFamily=Lucida Console;fillColor=#dae8fc;strokeColor=#6c8ebf;dashed=1;" vertex="1" parent="1">
                    <mxGeometry x="100" y="240" width="20" height="40" as="geometry"/>
                </mxCell>
            </root>
        </mxGraphModel>
    </diagram>
</mxfile>